<?xml version="1.0" encoding="UTF-8" standalone="no"?>
<!-- Created with Inkscape (http://www.inkscape.org/) -->

<svg
   xmlns:dc="http://purl.org/dc/elements/1.1/"
   xmlns:cc="http://creativecommons.org/ns#"
   xmlns:rdf="http://www.w3.org/1999/02/22-rdf-syntax-ns#"
   xmlns:svg="http://www.w3.org/2000/svg"
   xmlns="http://www.w3.org/2000/svg"
   xmlns:sodipodi="http://sodipodi.sourceforge.net/DTD/sodipodi-0.dtd"
   xmlns:inkscape="http://www.inkscape.org/namespaces/inkscape"
   width="282.15601"
   height="120.1"
   id="svg3149"
   version="1.1"
   inkscape:version="0.48.2 r9819"
   sodipodi:docname="separator-compact-1.svg">
  <defs
     id="defs3151" />
  <sodipodi:namedview
     id="base"
     pagecolor="#ffffff"
     bordercolor="#666666"
     borderopacity="1.0"
     inkscape:pageopacity="0.0"
     inkscape:pageshadow="2"
     inkscape:zoom="3.4165496"
     inkscape:cx="140.93166"
     inkscape:cy="60.049972"
     inkscape:document-units="px"
     inkscape:current-layer="layer1"
     showgrid="false"
     inkscape:window-width="1436"
     inkscape:window-height="856"
     inkscape:window-x="4"
     inkscape:window-y="0"
     inkscape:window-maximized="1" />
  <metadata
     id="metadata3154">
    <rdf:RDF>
      <cc:Work
         rdf:about="">
        <dc:format>image/svg+xml</dc:format>
        <dc:type
           rdf:resource="http://purl.org/dc/dcmitype/StillImage" />
        <dc:title />
      </cc:Work>
    </rdf:RDF>
  </metadata>
  <g
     inkscape:label="Layer 1"
     inkscape:groupmode="layer"
     id="layer1"
     transform="translate(0,-266.59795)"
     style="fill:#4d3b27;fill-opacity:1">
    <path
       d="m 6.4088,330.37915 c 6.45125,7.28125 12.6725,10.92375 18.66625,10.92375 4.125,0 7.61,-1.52 10.4625,-4.55125 2.84875,-3.02875 4.27125,-6.75375 4.27125,-11.17375 0,-4.26625 -1.535,-9.39375 -4.605,-15.38375 -3.81625,-7.48375 -5.7275,-12.76125 -5.7275,-15.83375 0,-3.81875 1.79875,-6.88625 5.39375,-9.2075 3.59,-2.3225 8.30625,-3.4825 14.1475,-3.4825 4.47125,0 8.86875,0.50125 13.19625,1.4675 -1.27625,3.265 -1.915,6.88875 -1.915,10.88125 0,11.5375 4.45,22.25625 13.3625,32.145 4.26626,4.79375 7.14501,7.1925 8.64626,7.1925 0.0588,0 0.1,-0.0175 0.15625,-0.0175 0.66125,0.21375 1.3725,0.335 2.10875,0.335 3.75625,0 6.805,-3.04375 6.805,-6.8 0,-3.76 -3.04875,-6.8075 -6.805,-6.8075 -3.75625,0 -6.80125,3.0475 -6.80125,6.8075 0,0.30875 0.0288,0.61125 0.065,0.90875 -3.87876,-3.59375 -7.20751,-7.85 -9.96126,-12.80125 -3.85375,-6.93375 -5.78,-13.7725 -5.78,-20.51125 0,-4.0075 0.70375,-7.62875 2.0975,-10.86875 11.11,2.87625 21.73751,8.96875 31.87626,18.28625 14.6725,13.47 22.00875,27.81125 22.00875,43.0075 0,1.40125 -0.0787,2.75375 -0.23,4.0625 -3.62,-1.37 -6.86375,-2.0675 -9.7125,-2.0675 -4.41875,0 -8.1425,1.41875 -11.17125,4.2675 -3.03375,2.85375 -4.5525,6.34125 -4.5525,10.4625 0,3.20875 1.055,6.48375 3.14,9.82125 -1.07625,0.115 -2.18125,0.1775 -3.32375,0.1775 -6.74125,0 -13.58,-1.925 -20.51126,-5.78125 -4.94875,-2.75375 -9.2075,-6.0825 -12.80375,-9.96 0.30125,0.0375 0.6025,0.0663 0.91125,0.0663 3.75875,0 6.8075,-3.04625 6.8075,-6.8025 0,-3.75625 -3.04875,-6.8025 -6.8075,-6.8025 -3.7575,0 -6.8,3.04625 -6.8,6.8025 0,0.7375 0.12,1.44625 0.3325,2.11 0,0.055 -0.0163,0.0962 -0.0163,0.1575 0,1.4975 2.3975,4.3775 7.1925,8.64625 9.8875,8.90875 20.60876,13.3625 32.14626,13.3625 1.39125,0 2.73375,-0.085 4.04,-0.23875 1.70125,2.33875 3.90625,4.70875 6.61875,7.10875 4.8025,4.27 8.0325,6.41 9.6825,6.41 0.59875,0 0.89625,-0.30125 0.89625,-0.9 0,-0.37625 -0.375,-0.74875 -1.12,-1.125 -5.11,-2.7725 -9.4275,-6.42875 -12.955,-10.96875 -0.2425,-0.30875 -0.45625,-0.61375 -0.68,-0.9175 5.2025,-1.06125 9.64,-3.465 13.29875,-7.23 2.27375,-2.3375 4.035,-4.9875 5.2925,-7.95125 6.61125,2.81 11.75625,4.22125 15.42375,4.22125 2.925,0 5.5475,-0.45375 7.9025,-1.31 2.35125,0.85625 4.9775,1.31 7.9,1.31 3.67,0 8.815,-1.41125 15.425,-4.22125 1.25999,2.96375 3.02124,5.61375 5.29374,7.9525 3.6575,3.76375 8.09375,6.1675 13.2975,7.22875 -0.225,0.30375 -0.43875,0.60875 -0.68,0.9175 -3.53,4.54 -7.84625,8.19625 -12.9525,10.96875 -0.75,0.37625 -1.12125,0.74875 -1.12125,1.125 0,0.59875 0.295,0.9 0.895,0.9 1.6525,0 4.87875,-2.14 9.68375,-6.41 2.71125,-2.4 4.91625,-4.76875 6.61876,-7.1075 1.3,0.1525 2.64625,0.2375 4.04,0.2375 11.54,0 22.25375,-4.45375 32.145,-13.3625 4.795,-4.26875 7.1925,-7.14875 7.1925,-8.64625 0,-0.0612 -0.0187,-0.1025 -0.0187,-0.1575 0.21375,-0.66375 0.335,-1.3725 0.335,-2.10875 0,-3.7575 -3.04375,-6.80375 -6.80125,-6.80375 -3.75875,0 -6.8025,3.04625 -6.8025,6.80375 0,3.755 3.04375,6.80125 6.8025,6.80125 0.31125,0 0.61,-0.0288 0.91,-0.0663 -3.5925,3.87875 -7.8525,7.20625 -12.80125,9.96 -6.93125,3.85625 -13.77,5.78125 -20.51,5.78125 -1.14125,0 -2.24625,-0.0625 -3.3275,-0.1775 2.09,-3.3375 3.14,-6.6125 3.14,-9.82 0,-4.1225 -1.51625,-7.61 -4.55001,-10.4625 -3.03,-2.85 -6.755,-4.2675 -11.1725,-4.2675 -2.84875,0 -6.09125,0.6975 -9.70749,2.06625 -0.15625,-1.30875 -0.235,-2.66125 -0.235,-4.0625 0,-15.19625 7.33374,-29.5375 22.00875,-43.0075 10.1425,-9.3175 20.7675,-15.41 31.875,-18.28625 1.395,3.24 2.10125,6.86125 2.10125,10.86875 0,6.73875 -1.9275,13.5775 -5.78125,20.51125 -2.755,4.95125 -6.08375,9.2075 -9.96375,12.80125 0.0425,-0.2975 0.0662,-0.6 0.0662,-0.90875 0,-3.76 -3.04375,-6.8075 -6.80125,-6.8075 -3.755,0 -6.8025,3.0475 -6.8025,6.8075 0,3.75625 3.0475,6.8 6.8025,6.8 0.7375,0 1.4475,-0.12125 2.11125,-0.335 0.055,0 0.0962,0.0175 0.1525,0.0175 1.5,0 4.3825,-2.39875 8.64875,-7.1925 8.91125,-9.88875 13.36625,-20.6075 13.36625,-32.145 0,-3.9925 -0.64125,-7.61625 -1.91875,-10.88125 4.3275,-0.96625 8.72375,-1.4675 13.19625,-1.4675 5.8425,0 10.55625,1.16 14.1475,3.4825 3.595,2.32125 5.39375,5.38875 5.39375,9.2075 0,3.0725 -1.90875,8.35 -5.725,15.83375 -3.07125,5.99 -4.60875,11.1175 -4.60875,15.38375 0,4.42 1.4225,8.145 4.27125,11.17375 2.85375,3.03125 6.34,4.55125 10.46125,4.55125 5.99625,0 12.22125,-3.6425 18.66874,-10.92375 4.27,-4.80375 6.40875,-8.03125 6.40875,-9.685 0,-0.59875 -0.2975,-0.895 -0.9,-0.895 -0.375,0 -0.74875,0.3725 -1.1225,1.12125 -2.77625,5.10625 -6.42999,9.425 -10.96999,12.9525 -4.53625,3.535 -8.6425,5.295 -12.3125,5.295 -6.1525,0 -9.225,-2.84625 -9.225,-8.5375 0,-2.01875 0.82,-4.75125 2.47,-8.195 4.7925,-9.8075 7.1875,-17.10625 7.1875,-21.89625 0,-6.43875 -2.08,-11.4925 -6.23375,-15.16375 -4.1525,-3.665 -9.90375,-5.49875 -17.23875,-5.49875 -4.97,0 -9.83125,0.5475 -14.58625,1.61125 -1.2775,-2.68125 -3.01625,-5.1 -5.225,-7.24875 -5.2425,-5.0975 -12.05125,-7.64125 -20.43875,-7.64125 -16.24376,0 -31.18,7.5025 -44.8075,22.515 -2.86625,3.15625 -5.41375,6.38 -7.675,9.66125 -2.265,-3.28125 -4.81125,-6.505 -7.67875,-9.66125 -13.6225,-15.0125 -28.56,-22.515 -44.80625,-22.515 -8.38375,0 -15.19626,2.54375 -20.43626,7.64125 -2.21,2.14875 -3.94625,4.5675 -5.22625,7.24875 -4.755,-1.06375 -9.6125,-1.61125 -14.585,-1.61125 -7.335,0 -13.0875,1.83375 -17.24125,5.49875 -4.15375,3.67125 -6.23375,8.725 -6.23375,15.16375 0,4.79 2.3975,12.08875 7.18875,21.89625 1.64875,3.44375 2.46875,6.17625 2.46875,8.195 0,5.69125 -3.07125,8.5375 -9.22125,8.5375 -3.675,0 -7.77875,-1.76 -12.315,-5.295 -4.54,-3.5275 -8.19375,-7.84625 -10.96875,-12.9525 -0.375,-0.74875 -0.74875,-1.12125 -1.125,-1.12125 -0.5975,0 -0.89875,0.29625 -0.89875,0.895 0,1.65375 2.1375,4.88125 6.40875,9.685 z m 104.42126,33.77375 c -3.54625,3.6525 -7.83,5.9575 -12.84875,6.93125 -2.275,-3.50875 -3.43625,-6.7425 -3.43625,-9.6925 0,-6.15125 2.845,-9.22375 8.5375,-9.22375 2.01875,0 4.7525,0.82 8.19625,2.46875 1.575,0.76875 3.0775,1.46875 4.5225,2.115 -1.19125,2.7475 -2.845,5.21375 -4.97125,7.40125 z m 30.24875,-7.07875 c -3.0275,-0.475 -5.525,-2.2125 -7.48625,-5.2475 -2.31875,-3.59125 -3.48,-8.3075 -3.48,-14.1475 0,-12.2875 3.66625,-24.02625 10.96625,-35.2175 7.30125,11.19125 10.96375,22.93 10.96375,35.2175 0,5.84 -1.16125,10.55625 -3.48125,14.1475 -1.9575,3.035 -4.455,4.7725 -7.4825,5.2475 z m 29.79874,-2.43625 c 3.44375,-1.65 6.1775,-2.47 8.195,-2.47 5.6925,0 8.53626,3.0725 8.53626,9.22375 0,2.95 -1.155,6.18375 -3.43376,9.6925 -5.01875,-0.97375 -9.30375,-3.27875 -12.84875,-6.93 -2.12375,-2.18875 -3.78125,-4.655 -4.97,-7.4025 1.445,-0.64625 2.94625,-1.345 4.52125,-2.11375 z m -20.54999,-64.00875 c 13.4725,-14.67375 27.81249,-22.01125 43.0075,-22.01125 7.86125,0 14.2825,2.4175 19.25875,7.25 1.88875,1.83625 3.42,3.86875 4.59125,6.0975 -11.52,2.95875 -22.395,9.06875 -32.61626,18.35 -15.00875,13.62375 -22.51374,28.5575 -22.51374,44.80375 0,1.60375 0.0962,3.15 0.28125,4.6375 -1.1975,0.515 -2.42375,1.08125 -3.69875,1.7375 -4.42625,2.2575 -8.0625,3.83 -10.94875,4.75375 0.2175,-0.22125 0.44375,-0.425 0.64875,-0.65625 3.6675,-4.15625 5.5025,-9.90375 5.5025,-17.2375 0,-13.37125 -3.8375,-25.95375 -11.5125,-37.7425 2.33875,-3.37625 4.9925,-6.7075 8,-9.9825 z M 69.5613,275.8679 c 4.97625,-4.8325 11.39876,-7.25 19.26001,-7.25 15.195,0 29.53375,7.3375 43.00625,22.01125 3.00875,3.275 5.6625,6.60625 8.00125,9.9825 -7.67375,11.78875 -11.51125,24.37125 -11.51125,37.7425 0,7.33375 1.83375,13.08125 5.50125,17.2375 0.205,0.23125 0.4325,0.435 0.64625,0.65625 -2.88375,-0.92375 -6.51875,-2.49625 -10.945,-4.75375 -1.27625,-0.65625 -2.50125,-1.2225 -3.7025,-1.7375 0.18625,-1.4875 0.28125,-3.03375 0.28125,-4.6375 0,-16.24625 -7.5025,-31.18 -22.51125,-44.80375 -10.22,-9.28125 -21.0925,-15.39125 -32.61751,-18.35 1.17125,-2.22875 2.70125,-4.26125 4.59125,-6.0975"
       style="fill:#4d3b27;fill-opacity:1;fill-rule:nonzero;stroke:none;stroke-opacity:1"
       id="path42"
       inkscape:connector-curvature="0" />
  </g>
</svg>
