<?xml version="1.0" encoding="UTF-8" standalone="no"?>
<!-- Created with Inkscape (http://www.inkscape.org/) -->

<svg
   xmlns:dc="http://purl.org/dc/elements/1.1/"
   xmlns:cc="http://creativecommons.org/ns#"
   xmlns:rdf="http://www.w3.org/1999/02/22-rdf-syntax-ns#"
   xmlns:svg="http://www.w3.org/2000/svg"
   xmlns="http://www.w3.org/2000/svg"
   xmlns:sodipodi="http://sodipodi.sourceforge.net/DTD/sodipodi-0.dtd"
   xmlns:inkscape="http://www.inkscape.org/namespaces/inkscape"
   id="svg3030"
   version="1.1"
   inkscape:version="0.48.2 r9819"
   sodipodi:docname="separator-wide.svg"
   height="44.242001"
   width="828.72998">
  <defs
     id="defs3032" />
  <sodipodi:namedview
     id="base"
     pagecolor="#ffffff"
     bordercolor="#666666"
     borderopacity="1.0"
     inkscape:pageopacity="0.0"
     inkscape:pageshadow="2"
     inkscape:zoom="0.35"
     inkscape:cx="-136.42857"
     inkscape:cy="-51.428571"
     inkscape:document-units="px"
     inkscape:current-layer="layer1"
     showgrid="false"
     inkscape:window-width="1445"
     inkscape:window-height="921"
     inkscape:window-x="1793"
     inkscape:window-y="357"
     inkscape:window-maximized="0" />
  <metadata
     id="metadata3035">
    <rdf:RDF>
      <cc:Work
         rdf:about="">
        <dc:format>image/svg+xml</dc:format>
        <dc:type
           rdf:resource="http://purl.org/dc/dcmitype/StillImage" />
        <dc:title />
      </cc:Work>
    </rdf:RDF>
  </metadata>
  <g
     inkscape:label="Layer 1"
     inkscape:groupmode="layer"
     id="layer1"
     transform="translate(31.507854,666.45046)">
    <path
       d="m 412.91339,-644.99819 c 9.245,-6.9075 16.0525,-7.46875 16.0525,-7.46875 1.145,0.745 4.64875,2.44625 8.25625,3.53875 11.74375,3.6 20.38875,2.89625 21.71125,-0.12125 0.9925,-2.26125 -1.21125,-5.43375 -5.1175,-7.1475 -12.955,-5.68125 -30.85375,-1.02875 -30.85375,-1.02875 0,0 -6.56375,-4.59625 -11.0875,-6.5825 -15.285,-6.705 -32.39125,-0.315 -39.27875,15.38375 -2.06875,4.7175 -2.68125,9.03625 -2.6075,12.65125 l 0.81625,-0.19 c -0.0688,-3.55 0.525,-7.7125 2.4775,-12.16125 6.915,-15.765 23.79,-21.44 38.32125,-15.06375 4.25,1.8625 7.92,4.86125 10.1375,6.325 -12.065,5.16375 -17.1225,9.7475 -20.3075,14.57875 l 3.34125,-0.009 0,0.009 392.44751,0 0,-2.71375 -384.30876,0 z m 41.915,-9.03875 c 2.46875,1.08125 3.7775,3.12875 3.14625,4.5675 -1.2625,2.88 -12.69625,2.11375 -20.26125,-0.3875 -2.795,-0.89875 -7.8375,-3.19125 -7.8375,-3.19125 13.6325,-3.50125 20.70375,-2.85125 24.9525,-0.98875 z m -62.39625,13.50375 c -6.91625,15.76375 -23.79,21.44 -38.32125,15.06375 -4.25125,-1.8625 -7.92,-4.86 -10.13875,-6.32375 12.065,-5.16375 17.12375,-9.75 20.30875,-14.58125 l -3.3425,0.01 0,-0.01 -392.446244,0 0,2.71375 384.307494,0 c -9.245,6.9075 -16.0525,7.46875 -16.0525,7.46875 -1.145,-0.74375 -4.64875,-2.44625 -8.2575,-3.5375 -11.7425,-3.60125 -20.3875,-2.89625 -21.70875,0.12 -0.9925,2.26 1.21,5.43375 5.1175,7.1475 12.955,5.68375 30.8525,1.02875 30.8525,1.02875 0,0 6.56375,4.5975 11.0875,6.5825 15.28625,6.705 32.39125,0.315 39.27875,-15.3825 2.07,-4.71875 2.68125,-9.03625 2.60875,-12.6525 l -0.81625,0.19 c 0.0675,3.55 -0.52625,7.71375 -2.4775,12.1625 z m -81.5475,5.9125 c -2.4675,-1.0825 -3.7775,-3.13 -3.145,-4.56875 1.26125,-2.87875 12.695,-2.11375 20.26125,0.3875 2.79375,0.9 7.8375,3.1925 7.8375,3.1925 -13.63375,3.50125 -20.70375,2.8525 -24.95375,0.98875"
       style="fill:#4d3b27;fill-opacity:1;fill-rule:nonzero;stroke:none"
       id="path50"
       inkscape:connector-curvature="0" />
  </g>
</svg>
