<svg xmlns="http://www.w3.org/2000/svg" viewBox="0 0 282.16 120.1"><g fill="#4d3b27"><path d="m6.409 330.38c6.451 7.281 12.673 10.924 18.666 10.924 4.125 0 7.61-1.52 10.463-4.551 2.849-3.03 4.271-6.754 4.271-11.174 0-4.266-1.535-9.394-4.605-15.384-3.816-7.484-5.727-12.761-5.727-15.834 0-3.819 1.799-6.886 5.394-9.207 3.59-2.322 8.306-3.483 14.15-3.483 4.471 0 8.869.501 13.196 1.467-1.276 3.265-1.915 6.889-1.915 10.881 0 11.538 4.45 22.256 13.362 32.14 4.266 4.794 7.145 7.192 8.646 7.192.059 0 .1-.017.156-.017.661.214 1.373.335 2.109.335 3.756 0 6.805-3.044 6.805-6.8 0-3.76-3.049-6.808-6.805-6.808-3.756 0-6.801 3.048-6.801 6.808 0 .309.029.611.065.909-3.879-3.594-7.208-7.85-9.961-12.801-3.854-6.934-5.78-13.772-5.78-20.511 0-4.01.704-7.629 2.097-10.869 11.11 2.876 21.738 8.969 31.876 18.286 14.673 13.47 22.01 27.811 22.01 43.01 0 1.401-.079 2.754-.23 4.063-3.62-1.37-6.864-2.067-9.713-2.067-4.419 0-8.142 1.419-11.171 4.267-3.034 2.854-4.552 6.341-4.552 10.462 0 3.209 1.055 6.484 3.14 9.821-1.076.115-2.181.178-3.324.178-6.741 0-13.58-1.925-20.511-5.781-4.949-2.754-9.207-6.082-12.804-9.96.301.038.602.066.911.066 3.759 0 6.808-3.046 6.808-6.803 0-3.756-3.049-6.803-6.807-6.803-3.758 0-6.8 3.046-6.8 6.803 0 .738.12 1.446.333 2.11 0 .055-.016.096-.016.158 0 1.498 2.398 4.377 7.193 8.646 9.887 8.909 20.609 13.363 32.15 13.363 1.391 0 2.734-.085 4.04-.239 1.701 2.339 3.906 4.709 6.619 7.109 4.802 4.27 8.03 6.41 9.683 6.41.599 0 .896-.301.896-.9 0-.376-.375-.749-1.12-1.125-5.11-2.772-9.427-6.429-12.955-10.969-.243-.309-.456-.614-.68-.918 5.203-1.061 9.64-3.465 13.299-7.23 2.274-2.337 4.03-4.988 5.293-7.951 6.611 2.81 11.756 4.221 15.424 4.221 2.925 0 5.548-.454 7.903-1.31 2.351.856 4.977 1.31 7.9 1.31 3.67 0 8.815-1.411 15.425-4.221 1.26 2.964 3.02 5.614 5.294 7.952 3.657 3.764 8.094 6.168 13.298 7.229-.225.304-.439.609-.68.918-3.53 4.54-7.846 8.196-12.952 10.969-.75.376-1.121.749-1.121 1.125 0 .599.295.9.895.9 1.653 0 4.879-2.14 9.684-6.41 2.711-2.4 4.916-4.769 6.619-7.108 1.3.152 2.646.238 4.04.238 11.54 0 22.254-4.454 32.15-13.363 4.795-4.269 7.192-7.149 7.192-8.646 0-.061-.019-.103-.019-.158.214-.664.335-1.373.335-2.109 0-3.757-3.044-6.804-6.801-6.804-3.759 0-6.803 3.046-6.803 6.804 0 3.755 3.044 6.801 6.803 6.801.311 0 .61-.029.91-.066-3.593 3.879-7.852 7.206-12.801 9.96-6.931 3.856-13.77 5.781-20.51 5.781-1.141 0-2.246-.063-3.327-.178 2.09-3.337 3.14-6.613 3.14-9.82 0-4.123-1.516-7.61-4.55-10.462-3.03-2.85-6.755-4.267-11.173-4.267-2.849 0-6.091.697-9.707 2.066-.156-1.309-.235-2.661-.235-4.063 0-15.196 7.334-29.538 22.01-43.01 10.143-9.317 20.768-15.41 31.875-18.286 1.395 3.24 2.101 6.861 2.101 10.869 0 6.739-1.928 13.577-5.781 20.511-2.755 4.951-6.084 9.207-9.964 12.801.042-.298.066-.6.066-.909 0-3.76-3.044-6.808-6.801-6.808-3.755 0-6.803 3.048-6.803 6.808 0 3.756 3.048 6.8 6.803 6.8.738 0 1.447-.121 2.111-.335.055 0 .096.017.153.017 1.5 0 4.382-2.399 8.649-7.192 8.911-9.889 13.366-20.608 13.366-32.14 0-3.993-.641-7.616-1.919-10.881 4.327-.966 8.724-1.467 13.196-1.467 5.843 0 10.556 1.16 14.15 3.483 3.595 2.321 5.394 5.389 5.394 9.207 0 3.072-1.909 8.35-5.725 15.834-3.071 5.99-4.609 11.12-4.609 15.384 0 4.42 1.423 8.145 4.271 11.174 2.854 3.03 6.34 4.551 10.461 4.551 5.996 0 12.221-3.642 18.669-10.924 4.27-4.804 6.409-8.03 6.409-9.685 0-.599-.298-.895-.9-.895-.375 0-.749.373-1.123 1.121-2.776 5.106-6.43 9.425-10.97 12.952-4.536 3.535-8.642 5.295-12.313 5.295-6.153 0-9.225-2.846-9.225-8.538 0-2.02.82-4.751 2.47-8.195 4.792-9.808 7.188-17.11 7.188-21.896 0-6.439-2.08-11.493-6.234-15.16-4.153-3.665-9.904-5.499-17.239-5.499-4.97 0-9.831.548-14.586 1.611-1.278-2.681-3.02-5.1-5.225-7.249-5.243-5.098-12.05-7.641-20.439-7.641-16.244 0-31.18 7.502-44.808 22.515-2.866 3.156-5.414 6.38-7.675 9.661-2.265-3.281-4.811-6.505-7.679-9.661-13.623-15.01-28.56-22.515-44.806-22.515-8.384 0-15.196 2.544-20.436 7.641-2.21 2.149-3.946 4.567-5.226 7.249-4.755-1.064-9.613-1.611-14.585-1.611-7.335 0-13.09 1.834-17.241 5.499-4.154 3.671-6.234 8.725-6.234 15.16 0 4.79 2.398 12.09 7.189 21.896 1.649 3.444 2.469 6.176 2.469 8.195 0 5.691-3.071 8.538-9.221 8.538-3.675 0-7.779-1.76-12.315-5.295-4.54-3.527-8.194-7.846-10.969-12.952-.375-.749-.749-1.121-1.125-1.121-.598 0-.899.296-.899.895 0 1.654 2.138 4.881 6.409 9.685m104.42 33.774c-3.546 3.652-7.83 5.957-12.849 6.931-2.275-3.509-3.436-6.743-3.436-9.692 0-6.151 2.845-9.224 8.537-9.224 2.02 0 4.752.82 8.196 2.469 1.575.769 3.078 1.469 4.522 2.115-1.191 2.748-2.845 5.214-4.971 7.401m30.25-7.079c-3.03-.475-5.525-2.212-7.486-5.248-2.319-3.591-3.48-8.308-3.48-14.15 0-12.288 3.666-24.03 10.966-35.22 7.301 11.191 10.964 22.93 10.964 35.22 0 5.84-1.161 10.556-3.481 14.15-1.958 3.035-4.455 4.772-7.482 5.248m29.799-2.436c3.444-1.65 6.178-2.47 8.195-2.47 5.692 0 8.536 3.072 8.536 9.224 0 2.95-1.155 6.184-3.434 9.692-5.02-.974-9.304-3.279-12.849-6.93-2.124-2.189-3.781-4.655-4.97-7.402 1.445-.646 2.946-1.345 4.521-2.114m-20.55-64.01c13.472-14.674 27.812-22.01 43.01-22.01 7.861 0 14.282 2.418 19.259 7.25 1.889 1.836 3.42 3.869 4.591 6.098-11.52 2.959-22.395 9.07-32.616 18.35-15.01 13.624-22.514 28.558-22.514 44.804 0 1.604.096 3.15.281 4.637-1.197.515-2.424 1.081-3.699 1.738-4.426 2.257-8.06 3.83-10.949 4.754.218-.221.444-.425.649-.656 3.667-4.156 5.502-9.904 5.502-17.238 0-13.371-3.838-25.954-11.512-37.743 2.339-3.376 4.993-6.707 8-9.983m-80.77-14.761c4.976-4.832 11.399-7.25 19.26-7.25 15.195 0 29.534 7.337 43.01 22.01 3.01 3.275 5.662 6.606 8 9.983-7.674 11.789-11.511 24.371-11.511 37.743 0 7.334 1.834 13.08 5.501 17.238.205.231.433.435.646.656-2.884-.924-6.519-2.496-10.945-4.754-1.276-.656-2.501-1.223-3.703-1.738.186-1.488.281-3.034.281-4.637 0-16.246-7.502-31.18-22.511-44.804-10.22-9.281-21.09-15.391-32.618-18.35 1.171-2.229 2.701-4.261 4.591-6.098" transform="translate(0-266.6)"/></g></svg>