<svg xmlns="http://www.w3.org/2000/svg" viewBox="0 0 828.73 44.24"><path d="m412.91-645c9.245-6.908 16.05-7.469 16.05-7.469 1.145.745 4.649 2.446 8.256 3.539 11.744 3.6 20.389 2.896 21.711-.121.993-2.261-1.211-5.434-5.118-7.148-12.955-5.681-30.854-1.029-30.854-1.029 0 0-6.564-4.596-11.09-6.582-15.285-6.705-32.391-.315-39.28 15.384-2.069 4.717-2.681 9.04-2.608 12.651l.816-.19c-.069-3.55.525-7.712 2.478-12.161 6.915-15.765 23.79-21.44 38.32-15.06 4.25 1.862 7.92 4.861 10.137 6.325-12.06 5.164-17.12 9.747-20.308 14.579l3.341-.009v.009h392.45v-2.714h-384.31m41.915-9.04c2.469 1.081 3.777 3.129 3.146 4.567-1.262 2.88-12.696 2.114-20.261-.388-2.795-.899-7.837-3.191-7.837-3.191 13.632-3.501 20.704-2.851 24.952-.989m-62.4 13.504c-6.916 15.764-23.79 21.44-38.32 15.06-4.251-1.862-7.92-4.86-10.139-6.324 12.06-5.164 17.12-9.75 20.309-14.581l-3.342.01v-.01h-392.45v2.714h384.31c-9.245 6.908-16.05 7.469-16.05 7.469-1.145-.744-4.649-2.446-8.257-3.538-11.743-3.601-20.387-2.896-21.709.12-.993 2.26 1.21 5.434 5.118 7.148 12.955 5.684 30.853 1.029 30.853 1.029 0 0 6.564 4.597 11.09 6.582 15.286 6.705 32.391.315 39.28-15.383 2.07-4.719 2.681-9.04 2.609-12.653l-.816.19c.067 3.55-.526 7.714-2.478 12.163m-81.55 5.913c-2.467-1.082-3.777-3.13-3.145-4.569 1.261-2.879 12.695-2.114 20.261.388 2.794.9 7.837 3.192 7.837 3.192-13.634 3.501-20.704 2.852-24.954.989" fill="#4d3b27" transform="translate(31.508 666.45)"/></svg>